Coordinates
version=1
nRows=10
nColumns=40
inDegrees=yes

Units are S.I. units (second, meters, Newtons, ...)
If the header above contains a line with 'inDegrees', this indicates whether rotational values are in degrees (yes) or radians (no).

endheader
time	pelvis_tilt	pelvis_list	pelvis_rotation	pelvis_tx	pelvis_ty	pelvis_tz	hip_flexion_r	hip_adduction_r	hip_rotation_r	knee_angle_r	knee_angle_r_beta	ankle_angle_r	subtalar_angle_r	mtp_angle_r	hip_flexion_l	hip_adduction_l	hip_rotation_l	knee_angle_l	knee_angle_l_beta	ankle_angle_l	subtalar_angle_l	mtp_angle_l	lumbar_extension	lumbar_bending	lumbar_rotation	arm_flex_r	arm_add_r	arm_rot_r	elbow_flex_r	pro_sup_r	wrist_flex_r	wrist_dev_r	arm_flex_l	arm_add_l	arm_rot_l	elbow_flex_l	pro_sup_l	wrist_flex_l	wrist_dev_l
      1.60000000	     -0.06544727	     -6.33544124	     89.58291041	      0.17743406	      0.93946086	      0.24497204	     29.48971022	      2.10273528	     -3.33599284	      5.00285267	      0.08731625	     -3.57660598	      0.00000000	      0.00000000	     -7.67723052	      3.67361201	      3.00801852	      9.03751419	      0.15773438	     10.51065565	      0.00000000	      0.00000000	      1.19642562	     -0.17106319	     -1.34774812	      0.00000000	      0.00000000	      0.00000000	      0.00000000	      0.00000000	      0.00000000	      0.00000000	      0.00000000	      0.00000000	      0.00000000	      0.00000000	      0.00000000	      0.00000000	      0.00000000
      1.61000000	      0.24964607	     -6.42596719	     89.60061491	      0.17832381	      0.93868575	      0.23393805	     29.75716896	      2.41734149	     -4.26161388	      6.33463990	      0.11056032	     -4.65919718	      0.00000000	      0.00000000	     -7.90650461	      3.27180947	      2.78949291	      9.79478625	      0.17095127	     10.51325822	      0.00000000	      0.00000000	      1.41867850	      0.22504036	     -1.38668942	      0.00000000	      0.00000000	      0.00000000	      0.00000000	      0.00000000	      0.00000000	      0.00000000	      0.00000000	      0.00000000	      0.00000000	      0.00000000	      0.00000000	      0.00000000	      0.00000000
      1.62000000	      0.59111275	     -6.50469488	     89.61373750	      0.17926971	      0.93812074	      0.22275966	     29.99299021	      2.73611466	     -5.14148228	      7.71606841	      0.13467080	     -5.77082157	      0.00000000	      0.00000000	     -8.10068792	      2.83256149	      2.52169065	     10.62950360	      0.18551984	     10.36085663	      0.00000000	      0.00000000	      1.64745810	      0.64920876	     -1.41628286	      0.00000000	      0.00000000	      0.00000000	      0.00000000	      0.00000000	      0.00000000	      0.00000000	      0.00000000	      0.00000000	      0.00000000	      0.00000000	      0.00000000	      0.00000000	      0.00000000
      1.63000000	      0.93130214	     -6.58903263	     89.62507296	      0.18020236	      0.93774127	      0.21148650	     30.21750041	      3.02684933	     -5.92411209	      9.12605701	      0.15927974	     -6.82901976	      0.00000000	      0.00000000	     -8.20961927	      2.38425455	      2.22569158	     11.59110151	      0.20230289	     10.05944112	      0.00000000	      0.00000000	      1.88655132	      1.08316786	     -1.44846076	      0.00000000	      0.00000000	      0.00000000	      0.00000000	      0.00000000	      0.00000000	      0.00000000	      0.00000000	      0.00000000	      0.00000000	      0.00000000	      0.00000000	      0.00000000	      0.00000000
      1.64000000	      1.26124320	     -6.70485380	     89.64265269	      0.18117243	      0.93752219	      0.20017296	     30.43357595	      3.29950814	     -6.55384069	     10.50411115	      0.18333132	     -7.74365553	      0.00000000	      0.00000000	     -8.18596886	      1.92799900	      1.91118605	     12.70618435	      0.22176475	      9.59602886	      0.00000000	      0.00000000	      2.16008921	      1.50246459	     -1.48084780	      0.00000000	      0.00000000	      0.00000000	      0.00000000	      0.00000000	      0.00000000	      0.00000000	      0.00000000	      0.00000000	      0.00000000	      0.00000000	      0.00000000	      0.00000000	      0.00000000
      1.65000000	      1.60443675	     -6.78001221	     89.65149872	      0.18220295	      0.93756315	      0.18876387	     30.55086502	      3.59379891	     -7.02137726	     11.81986655	      0.20629559	     -8.45718904	      0.00000000	      0.00000000	     -8.12238989	      1.44729761	      1.58076894	     13.94076407	      0.24331223	      8.91008722	      0.00000000	      0.00000000	      2.41192448	      1.93144131	     -1.51786400	      0.00000000	      0.00000000	      0.00000000	      0.00000000	      0.00000000	      0.00000000	      0.00000000	      0.00000000	      0.00000000	      0.00000000	      0.00000000	      0.00000000	      0.00000000	      0.00000000
      1.66000000	      1.93273777	     -6.91221900	     89.65874485	      0.18329655	      0.93772458	      0.17737171	     30.67692287	      3.89012063	     -7.30901424	     13.06436590	      0.22801620	     -8.96975077	      0.00000000	      0.00000000	     -7.86919055	      0.95253159	      1.19534397	     15.36307504	      0.26813624	      8.04806456	      0.00000000	      0.00000000	      2.72738689	      2.33897905	     -1.53451745	      0.00000000	      0.00000000	      0.00000000	      0.00000000	      0.00000000	      0.00000000	      0.00000000	      0.00000000	      0.00000000	      0.00000000	      0.00000000	      0.00000000	      0.00000000	      0.00000000
      1.67000000	      2.25560007	     -6.94988198	     89.66002679	      0.18441147	      0.93822206	      0.16590629	     30.62525289	      4.20160859	     -7.45916890	     14.19993868	      0.24783568	     -9.22320473	      0.00000000	      0.00000000	     -7.62333549	      0.44948714	      0.85608501	     16.90518075	      0.29505106	      6.91095100	      0.00000000	      0.00000000	      2.94360270	      2.74591636	     -1.55103034	      0.00000000	      0.00000000	      0.00000000	      0.00000000	      0.00000000	      0.00000000	      0.00000000	      0.00000000	      0.00000000	      0.00000000	      0.00000000	      0.00000000	      0.00000000	      0.00000000
      1.68000000	      2.56121210	     -7.00958173	     89.67053585	      0.18558559	      0.93888267	      0.15453489	     30.52855770	      4.51310890	     -7.50856741	     15.22284111	      0.26568870	     -9.26449114	      0.00000000	     -0.00000000	     -7.20853458	     -0.07928260	      0.43195823	     18.63473716	      0.32523752	      5.53162767	      0.00000000	     -0.00000000	      3.15082550	      3.11500413	     -1.54317384	      0.00000000	     -0.00000000	      0.00000000	      0.00000000	      0.00000000	     -0.00000000	     -0.00000000	      0.00000000	     -0.00000000	      0.00000000	      0.00000000	      0.00000000	      0.00000000	      0.00000000
      1.69000000	      2.85058300	     -7.05736868	     89.67535025	      0.18682177	      0.93972178	      0.14319869	     30.35129799	      4.83754996	     -7.46890730	     16.13487999	      0.28160678	     -9.11237280	      0.00000000	      0.00000000	     -6.66586493	     -0.62091995	      0.00891980	     20.55288426	      0.35871550	      3.90514116	      0.00000000	      0.00000000	      3.35149391	      3.45309754	     -1.53485433	      0.00000000	      0.00000000	      0.00000000	      0.00000000	      0.00000000	      0.00000000	      0.00000000	      0.00000000	      0.00000000	      0.00000000	      0.00000000	      0.00000000	      0.00000000	      0.00000000
